<?xml version="1.0" encoding="utf-8"?>
<!-- Generator: Adobe Illustrator 26.0.3, SVG Export Plug-In . SVG Version: 6.00 Build 0)  -->
<svg version="1.1" id="Layer_1" xmlns="http://www.w3.org/2000/svg" xmlns:xlink="http://www.w3.org/1999/xlink" x="0px" y="0px"
	 viewBox="0 0 1080 1080" style="enable-background:new 0 0 1080 1080;" xml:space="preserve">
<style type="text/css">
	.st0{fill:#0E1416;}
	.st1{fill:url(#SVGID_1_);}
	.st2{fill:url(#SVGID_00000075885517191888025500000017007230679641449127_);}
	.st3{fill:url(#SVGID_00000045598795158692878230000014698818845932208521_);}
</style>
<g>
	<g>
		<path class="st0" d="M162.79,784.47h-15.62v-70.35h15.62V784.47z"/>
		<path class="st0" d="M251.03,784.47h-15.62V734.6c0-2-1.19-3.5-3.58-4.51c-2.39-1-6.43-1.5-12.12-1.5
			c-5.75,0-9.79,0.47-12.12,1.42c-2.33,0.95-3.5,2.48-3.5,4.59v49.86h-15.62v-51.5c0-7.64,3.01-13.08,9.03-16.33
			c4.93-2.65,12.33-3.98,22.2-3.98c9.7,0,17.13,1.44,22.28,4.3c6.02,3.36,9.03,8.69,9.03,16V784.47z"/>
		<path class="st0" d="M338.62,729.73h-70.35v-15.62h70.35V729.73z M311.3,784.47h-15.62v-46.93h15.62V784.47z"/>
		<path class="st0" d="M426.86,784.47h-54.73c-4.34,0-8.03-1.52-11.06-4.55c-3.04-3.04-4.55-6.72-4.55-11.06v-39.12
			c0-4.34,1.52-8.02,4.55-11.06c3.04-3.04,6.72-4.55,11.06-4.55h54.73v15.62h-53.19c-0.43,0-0.8,0.15-1.1,0.45
			c-0.3,0.3-0.45,0.66-0.45,1.1v10.17h54.73v15.62h-54.73v10.17c0,0.49,0.15,0.88,0.45,1.18c0.3,0.3,0.66,0.45,1.1,0.45h53.19
			V784.47z"/>
		<path class="st0" d="M510.23,784.47H463.3c-4.34,0-8.03-1.52-11.06-4.55c-3.04-3.04-4.55-6.72-4.55-11.06v-54.73h15.62v53.11
			c0,0.49,0.15,0.88,0.45,1.18c0.3,0.3,0.66,0.45,1.1,0.45h45.38V784.47z"/>
		<path class="st0" d="M587.73,784.47h-46.93c-4.34,0-8.02-1.52-11.06-4.55c-3.04-3.04-4.55-6.72-4.55-11.06v-54.73h15.62v53.11
			c0,0.49,0.15,0.88,0.45,1.18c0.3,0.3,0.66,0.45,1.1,0.45h45.38V784.47z"/>
		<path class="st0" d="M618.39,784.47h-15.61v-70.35h15.61V784.47z"/>
		<path class="st0" d="M711.84,768.85c0,4.23-1.52,7.89-4.55,10.98c-3.04,3.09-6.72,4.64-11.06,4.64h-54.74v-15.62h53.19
			c1.03,0,1.54-0.54,1.54-1.63v-8.54c0-0.49-0.15-0.88-0.45-1.18c-0.3-0.3-0.66-0.45-1.1-0.45H657.1c-4.34,0-8.02-1.52-11.06-4.55
			c-3.04-3.04-4.55-6.72-4.55-11.06v-11.71c0-4.34,1.52-8.02,4.55-11.06c3.04-3.04,6.72-4.55,11.06-4.55h54.74v15.62h-53.19
			c-0.43,0-0.8,0.15-1.1,0.45c-0.3,0.3-0.45,0.66-0.45,1.1v8.62c0,0.43,0.15,0.8,0.45,1.1c0.3,0.3,0.66,0.45,1.1,0.45h37.57
			c4.34,0,8.02,1.52,11.06,4.55c3.04,3.04,4.55,6.72,4.55,11.06V768.85z"/>
		<path class="st0" d="M750.39,784.47h-15.61v-70.35h15.61V784.47z"/>
		<path class="st0" d="M846.52,784.47H830.9l-3.9-25.78c-0.22-1.08-0.76-1.63-1.63-1.63h-35.95v27.41h-15.61v-43.02h51.56
			c0.49,0,0.88-0.15,1.18-0.45c0.3-0.3,0.45-0.66,0.45-1.1v-8.62c0-1.03-0.54-1.54-1.63-1.54h-51.56v-15.62H827
			c4.23,0,7.89,1.52,10.98,4.55c3.09,3.04,4.64,6.72,4.64,11.06v11.71c0,1.52-0.26,3.01-0.77,4.47c-0.51,1.46-1.23,2.58-2.15,3.33
			c0.87,0.71,1.54,1.84,2.03,3.42c0.33,0.98,0.62,2.44,0.9,4.39L846.52,784.47z"/>
		<path class="st0" d="M933.54,784.47h-15.61V734.6c0-2-1.19-3.5-3.58-4.51c-2.39-1-6.43-1.5-12.12-1.5
			c-5.75,0-9.79,0.47-12.12,1.42c-2.33,0.95-3.5,2.48-3.5,4.59v49.86H871v-51.5c0-7.64,3.01-13.08,9.03-16.33
			c4.93-2.65,12.33-3.98,22.2-3.98c9.71,0,17.13,1.44,22.28,4.3c6.02,3.36,9.03,8.69,9.03,16V784.47z"/>
	</g>
	<g>
		<path class="st0" d="M537.92,552.88h-19.69c-14.06,0-25.32,5.25-33.8,15.75c-8.48,10.5-12.7,22.97-12.7,37.38
			c0,14.01,3.92,25.75,11.77,35.22c8.26,10.72,19.21,16.06,32.84,16.06h21.58V552.88z"/>
		<path class="st0" d="M920.3,475.64v36.45c-0.42,41.61-13.43,75.8-39.04,102.56c-26.86,28.43-61.75,42.63-104.7,42.63H547.27
			V552.87h9.84v86.29c0,4.87,7.57,4.88,7.57,0v-86.29h10.73v63.92c0,4.87,7.57,4.88,7.57,0v-63.92h9.37v49.69
			c0,4.87,7.57,4.88,7.57,0v-49.69h10.73v34.78c0,4.87,7.57,4.87,7.57,0v-34.78h10.73v16.47c0,4.87,7.57,4.88,7.57,0v-16.47h10.05
			v4.27c0,4.87,7.57,4.87,7.57,0v-4.27h106.52c16.96,0,30.6-4.2,40.93-12.6c10.33-8.39,15.51-19.97,15.51-34.73v-31.34
			c-0.42-12.3-6.18-22.13-17.3-29.51c-9.88-6.14-22.24-9.23-37.08-9.23H601.57c-0.03,0-0.06,0.01-0.09,0
			c-0.42,0.02-0.84,0.02-1.27,0.02c-29.12,0-52.73-23.84-52.73-53.25s23.61-53.25,52.73-53.25c1.57,0,3.12,0.07,4.66,0.21H761.2
			c55.91-0.4,96.5,10.92,121.79,33.99C908.27,386.26,920.7,423.74,920.3,475.64z"/>
		<path class="st0" d="M935.75,217.99c0,14.43-4.54,27.19-13.6,38.3c-9.06,11.13-20.79,16.68-35.21,16.68H598.56
			c-0.04,0-0.08,0-0.13-0.01c-29.05-1.95-52-25.7-52-54.7c0-30.28,25-54.81,55.85-54.83c-0.67-0.15-1.35-0.3-2.04-0.43H889.4
			c14,0,25.22,5.46,33.67,16.38C931.52,190.29,935.75,203.16,935.75,217.99z"/>
	</g>
	<path class="st0" d="M598.56,272.98h-0.17c0.01,0,0.03-0.01,0.04-0.01C598.47,272.98,598.52,272.98,598.56,272.98z"/>
	<g>
		<linearGradient id="SVGID_1_" gradientUnits="userSpaceOnUse" x1="144.9655" y1="607.3322" x2="447.6105" y2="607.3322">
			<stop  offset="0" style="stop-color:#002CAA"/>
			<stop  offset="1" style="stop-color:#0035AA"/>
		</linearGradient>
		<path class="st1" d="M144.97,579.66V635c0,12.9,10.45,23.35,23.35,23.35h255.95c12.9,0,23.35-10.45,23.35-23.35v-55.34
			c0-12.9-10.45-23.35-23.35-23.35H168.32C155.42,556.31,144.97,566.77,144.97,579.66z"/>
		
			<linearGradient id="SVGID_00000181771342160266339410000017074329643778740362_" gradientUnits="userSpaceOnUse" x1="250.0474" y1="412.7492" x2="360.0288" y2="412.7492">
			<stop  offset="0" style="stop-color:#002CAA"/>
			<stop  offset="1" style="stop-color:#0035AA"/>
		</linearGradient>
		<path style="fill:url(#SVGID_00000181771342160266339410000017074329643778740362_);" d="M250.05,279.73v156.06
			c0,60.74,49.24,109.98,109.98,109.98h0V389.71C360.03,328.97,310.79,279.73,250.05,279.73L250.05,279.73z"/>
		
			<linearGradient id="SVGID_00000020368363155183367590000003330708229092873902_" gradientUnits="userSpaceOnUse" x1="144.9655" y1="216.6194" x2="448.9663" y2="216.6194">
			<stop  offset="0" style="stop-color:#002CAA"/>
			<stop  offset="1" style="stop-color:#0035AA"/>
		</linearGradient>
		<path style="fill:url(#SVGID_00000020368363155183367590000003330708229092873902_);" d="M448.97,243.58v-53.93
			c0-14.14-11.46-25.6-25.6-25.6h-252.8c-14.14,0-25.6,11.46-25.6,25.6v53.93c0,14.14,11.46,25.6,25.6,25.6h252.8
			C437.5,269.18,448.97,257.72,448.97,243.58z"/>
	</g>
	<path class="st0" d="M606.09,272.98c-1.24,0.08-2.5,0.13-3.76,0.13c-1.27,0-2.52-0.04-3.76-0.13H606.09z"/>
	<circle class="st0" cx="522.93" cy="301.32" r="36.91"/>
</g>
</svg>
